#N canvas 391 343 570 398 10;
#X declare -path ../generic_abstractions;
#X obj 168 17 declare -path ../generic_abstractions;
#X obj 60 17 inlet;
#X obj 60 39 list split 2;
#X obj 100 62 outlet;
#X obj 60 87 unpack;
#X obj 60 129 +;
#X obj 99 112 * 128;
#X obj 60 219 s ramp;
#X obj 255 85 adc~;
#X obj 255 148 throw~;
#X obj 328 148 throw~;
#X obj 255 226 r~;
#X obj 289 268 dac~;
#X obj 285 226 r~;
#X obj 298 85 route 0 1;
#X obj 60 248 r switches;
#X obj 60 270 route \$1;
#X msg 60 317 dsp \$1;
#X obj 60 339 s pd;
#X obj 115 317 s patchUpdate;
#X obj 255 197 route 0 1 2;
#X obj 315 225 r~;
#X obj 60 292 route 2 3;
#X text 133 293 these are the pins of the chip the switches are wired
to;
#X obj 60 151 / 8191;
#X obj 60 173 * 1000;
#X obj 60 195 + 15;
#X obj 298 63 set_outputs \$4 \$5;
#X obj 255 175 set_inputs \$2 \$3;
#X connect 1 0 2 0;
#X connect 2 0 4 0;
#X connect 2 1 3 0;
#X connect 4 0 5 0;
#X connect 4 1 6 0;
#X connect 5 0 24 0;
#X connect 6 0 5 1;
#X connect 8 0 9 0;
#X connect 8 1 10 0;
#X connect 11 0 12 0;
#X connect 13 0 12 1;
#X connect 14 0 9 0;
#X connect 14 1 10 0;
#X connect 15 0 16 0;
#X connect 16 0 22 0;
#X connect 17 0 18 0;
#X connect 20 0 11 0;
#X connect 20 1 13 0;
#X connect 20 2 21 0;
#X connect 21 0 12 1;
#X connect 21 0 12 0;
#X connect 22 0 17 0;
#X connect 22 1 19 0;
#X connect 24 0 25 0;
#X connect 25 0 26 0;
#X connect 26 0 7 0;
#X connect 27 0 14 0;
#X connect 28 0 20 0;
