#N canvas 355 319 726 339 10;
#X declare -path ../generic_abstractions;
#X obj 28 17 declare -path ../generic_abstractions;
#X obj 28 93 adc~;
#X obj 28 156 throw~;
#X obj 101 156 throw~;
#X obj 28 254 r~;
#X obj 62 296 dac~;
#X obj 58 254 r~;
#X obj 71 93 route 0 1;
#X obj 221 177 r switches;
#X obj 221 199 route \$1;
#X msg 221 246 dsp \$1;
#X obj 221 268 s pd;
#X obj 276 246 s patchUpdate;
#X obj 28 225 route 0 1 2;
#X obj 88 253 r~;
#X obj 221 221 route 2 3;
#X text 294 222 these are the pins of the chip the switches are wired
to;
#X obj 71 71 set_outputs \$4 \$5;
#X obj 28 203 set_inputs \$2 \$3;
#X obj 220 124 \$3;
#X obj 220 102 r \$1-get_inlet;
#X text 219 66 store the first inlet number to a global table to use
it in the [pd check-inlet-num] subpatch;
#X obj 220 146 s give_inlet;
#X obj 28 181 loadbang;
#N canvas 0 51 298 228 pot 0;
#X obj 21 49 unpack;
#X obj 21 91 +;
#X obj 60 74 * 128;
#X obj 21 181 s ramp;
#X obj 21 113 / 8191;
#X obj 21 135 * 1000;
#X obj 21 157 + 15;
#X obj 21 27 r module\$1;
#X connect 0 0 1 0;
#X connect 0 1 2 0;
#X connect 1 0 4 0;
#X connect 2 0 1 1;
#X connect 4 0 5 0;
#X connect 5 0 6 0;
#X connect 6 0 3 0;
#X connect 7 0 0 0;
#X restore 28 39 pd pot;
#X connect 1 0 2 0;
#X connect 1 1 3 0;
#X connect 4 0 5 0;
#X connect 6 0 5 1;
#X connect 7 0 2 0;
#X connect 7 1 3 0;
#X connect 8 0 9 0;
#X connect 9 0 15 0;
#X connect 10 0 11 0;
#X connect 13 0 4 0;
#X connect 13 1 6 0;
#X connect 13 2 14 0;
#X connect 14 0 5 1;
#X connect 14 0 5 0;
#X connect 15 0 10 0;
#X connect 15 1 12 0;
#X connect 17 0 7 0;
#X connect 18 0 13 0;
#X connect 19 0 22 0;
#X connect 20 0 19 0;
#X connect 23 0 18 0;
