#N canvas 293 174 454 279 10;
#X obj 67 36 inlet;
#X obj 67 58 t f f f b;
#X obj 127 95 f;
#X obj 87 112 -;
#X obj 87 134 abs;
#X obj 87 156 > \$1;
#X obj 67 182 spigot;
#X obj 205 36 inlet thresh;
#X obj 67 204 outlet;
#X connect 0 0 1 0;
#X connect 1 0 6 0;
#X connect 1 1 3 0;
#X connect 1 2 2 1;
#X connect 1 3 2 0;
#X connect 2 0 3 1;
#X connect 3 0 4 0;
#X connect 4 0 5 0;
#X connect 5 0 6 1;
#X connect 6 0 8 0;
#X connect 7 0 5 1;
