#N canvas 601 272 450 300 10;
#X text 53 41 number is outlet number;
#X obj 54 108 swap;
#X obj 54 130 pack;
#X obj 54 213 f;
#X obj 54 152 route 1 0;
#X text 77 200 when the patching update is deactivated \, store value
and output it when it is reactivated;
#X obj 54 235 outlet;
#X obj 75 84 inlet update;
#X obj 31 180 inlet reactivate;
#X obj 54 58 r param\$1;
#X connect 1 0 2 0;
#X connect 1 1 2 1;
#X connect 2 0 4 0;
#X connect 3 0 6 0;
#X connect 4 0 3 0;
#X connect 4 1 3 1;
#X connect 7 0 1 1;
#X connect 8 0 3 0;
#X connect 9 0 1 0;
