#N canvas 598 419 506 233 10;
#N canvas 601 112 559 505 serial-communication 0;
#X msg 79 90 close;
#X obj 14 185 select 192;
#X obj 71 319 spigot;
#X msg 104 296 0;
#X msg 14 244 1;
#X obj 37 375 spigot;
#X msg 53 244 0;
#X obj 14 219 t b b b;
#X obj 14 162 comport 6 115200;
#X obj 14 22 inlet;
#X text 103 239 after data transfer package received \, close spigot
till package initialiser received;
#X obj 37 397 outlet;
#X obj 79 68 inlet;
#X text 89 181 This is 0xc0 in the Arduino code which denotes the beginning
of the data stream;
#X obj 171 69 r pd;
#X obj 171 91 route dsp;
#X text 244 92 control the DSP LED;
#X obj 14 266 t f f;
#X msg 171 113 print \$1;
#X msg 14 46 devices;
#X obj 26 68 inlet;
#X msg 26 90 open \$1;
#X obj 174 339 spigot;
#X obj 174 361 t l b;
#X obj 174 383 print;
#X obj 207 318 tgl 15 0 empty empty empty 17 7 0 10 -262144 -1 -1 0
1;
#X text 216 339 debug input;
#X obj 104 271 r close-comport;
#X obj 37 347 repack 32;
#X connect 0 0 8 0;
#X connect 1 0 7 0;
#X connect 1 1 2 0;
#X connect 2 0 28 0;
#X connect 3 0 2 1;
#X connect 4 0 17 0;
#X connect 5 0 11 0;
#X connect 6 0 5 1;
#X connect 7 0 4 0;
#X connect 7 1 28 0;
#X connect 7 2 6 0;
#X connect 8 0 1 0;
#X connect 9 0 19 0;
#X connect 12 0 0 0;
#X connect 14 0 15 0;
#X connect 15 0 18 0;
#X connect 17 0 5 1;
#X connect 17 1 2 1;
#X connect 18 0 8 0;
#X connect 19 0 8 0;
#X connect 20 0 21 0;
#X connect 21 0 8 0;
#X connect 22 0 23 0;
#X connect 23 0 24 0;
#X connect 23 1 25 0;
#X connect 25 0 22 1;
#X connect 27 0 3 0;
#X connect 28 0 5 0;
#X connect 28 0 22 0;
#X restore 45 137 pd serial-communication;
#X msg 45 61 bang;
#X msg 180 109 bang;
#N canvas 958 106 279 221 receivedData 0;
#X obj 15 30 inlet;
#N canvas 613 84 536 219 analog 0;
#X obj 29 21 inlet;
#X text 138 14 each subpatch contains the values of the potentiometers
of each module. the amount of values passed to that subpatch is the
number of potentiometers of the module * 2;
#N canvas 223 83 414 521 first-module 0;
#X obj 25 10 inlet;
#X obj 25 104 t f b;
#X obj 25 448 +;
#X obj 86 269 +;
#X obj 117 179 +;
#X obj 148 429 +;
#X obj 179 339 +;
#X obj 210 248 +;
#X obj 210 292 s osc1-fallPow;
#X obj 179 382 s osc1-risePow;
#X obj 148 472 s osc1-brk;
#X obj 117 222 s osc1-switch;
#X obj 25 470 s osc1-freq;
#X obj 86 313 s osc1-pmIndex;
#X obj 55 402 s osc1-fmIndex;
#X obj 55 358 +;
#X obj 43 425 * 128;
#X obj 73 336 * 128;
#X obj 104 246 * 128;
#X obj 135 156 * 128;
#X obj 166 406 * 128;
#X obj 197 316 * 128;
#X obj 228 225 * 128;
#X obj 55 380 / 8;
#X obj 86 291 / 4096;
#X obj 117 200 / 8191;
#X obj 148 450 / 8191;
#X obj 210 270 / 8191;
#X obj 62 57 outlet;
#X obj 52 127 s close-comport;
#X obj 179 360 / 8191;
#X obj 25 82 unpack f f f f f f f f f f f f f f;
#X obj 25 32 list split 14;
#X connect 0 0 32 0;
#X connect 1 0 2 0;
#X connect 1 1 29 0;
#X connect 2 0 12 0;
#X connect 3 0 24 0;
#X connect 4 0 25 0;
#X connect 5 0 26 0;
#X connect 6 0 30 0;
#X connect 7 0 27 0;
#X connect 15 0 23 0;
#X connect 16 0 2 1;
#X connect 17 0 15 1;
#X connect 18 0 3 1;
#X connect 19 0 4 1;
#X connect 20 0 5 1;
#X connect 21 0 6 1;
#X connect 22 0 7 1;
#X connect 23 0 14 0;
#X connect 24 0 13 0;
#X connect 25 0 11 0;
#X connect 26 0 10 0;
#X connect 27 0 8 0;
#X connect 30 0 9 0;
#X connect 31 0 1 0;
#X connect 31 1 16 0;
#X connect 31 2 15 0;
#X connect 31 3 17 0;
#X connect 31 4 3 0;
#X connect 31 5 18 0;
#X connect 31 6 4 0;
#X connect 31 7 19 0;
#X connect 31 8 5 0;
#X connect 31 9 20 0;
#X connect 31 10 6 0;
#X connect 31 11 21 0;
#X connect 31 12 7 0;
#X connect 31 13 22 0;
#X connect 32 0 31 0;
#X connect 32 1 28 0;
#X restore 29 44 pd first-module;
#N canvas 221 293 309 278 third-module 0;
#X obj 37 17 inlet;
#X obj 37 89 unpack;
#X obj 37 141 +;
#X obj 70 124 * 128;
#X obj 37 163 / 8191;
#X obj 37 231 s ramp;
#X obj 37 39 list split 2;
#X obj 71 62 outlet;
#X obj 37 185 * 1000;
#X obj 37 207 + 15;
#X connect 0 0 6 0;
#X connect 1 0 2 0;
#X connect 1 1 3 0;
#X connect 2 0 4 0;
#X connect 3 0 2 1;
#X connect 4 0 8 0;
#X connect 6 0 1 0;
#X connect 6 1 7 0;
#X connect 8 0 9 0;
#X connect 9 0 5 0;
#X restore 29 91 pd third-module;
#N canvas 725 103 368 551 second-module 0;
#X obj 25 7 inlet;
#X obj 25 408 +;
#X obj 98 219 +;
#X obj 135 129 +;
#X obj 61 313 +;
#X obj 25 433 s osc2-freq;
#X obj 61 356 s osc2-fmIndex;
#X obj 98 262 s osc2-pmIndex;
#X obj 43 385 * 128;
#X obj 79 291 * 128;
#X obj 116 196 * 128;
#X obj 153 106 * 128;
#X obj 61 334 / 8;
#X obj 98 240 / 4096;
#X obj 135 172 s osc2-pow;
#X obj 135 150 * 0.02;
#X obj 59 52 outlet;
#X obj 25 82 unpack f f f f f f f f;
#X obj 25 29 list split 8;
#X connect 0 0 18 0;
#X connect 1 0 5 0;
#X connect 2 0 13 0;
#X connect 3 0 15 0;
#X connect 4 0 12 0;
#X connect 8 0 1 1;
#X connect 9 0 4 1;
#X connect 10 0 2 1;
#X connect 11 0 3 1;
#X connect 12 0 6 0;
#X connect 13 0 7 0;
#X connect 15 0 14 0;
#X connect 17 0 1 0;
#X connect 17 1 8 0;
#X connect 17 2 4 0;
#X connect 17 3 9 0;
#X connect 17 4 2 0;
#X connect 17 5 10 0;
#X connect 17 6 3 0;
#X connect 17 7 11 0;
#X connect 18 0 17 0;
#X connect 18 1 16 0;
#X restore 29 67 pd second-module;
#X obj 29 115 outlet;
#X connect 0 0 2 0;
#X connect 2 0 4 0;
#X connect 3 0 5 0;
#X connect 4 0 3 0;
#X restore 15 53 pd analog;
#N canvas 270 39 791 569 comparison-tables 0;
#X obj 522 106 until;
#X obj 522 149 f;
#X obj 552 150 + 1;
#X obj 522 171 t f f;
#X obj 522 193 * 20;
#X msg 537 128 0;
#X obj 522 215 + 10;
#X obj 522 237 pack;
#X msg 578 103 resize \$1;
#X obj 612 169 s input_pins;
#X obj 629 148 s output_pins;
#X text 557 43 number of modules;
#X text 520 30 Create tables;
#X text 10 14 output_pins should have the same numbers with the corresponing
array in the Arduino code;
#X msg 206 152 reset;
#N canvas 322 27 651 615 set-values-to-input-and-output 0;
#X obj 21 314 tabwrite;
#X obj 121 206 t b b;
#X obj 106 297 f;
#X obj 136 298 + 1;
#X msg 121 275 0;
#X obj 39 234 t f b;
#X obj 106 251 spigot;
#X msg 139 229 1;
#X msg 167 205 0;
#X obj 21 4 inlet which_table;
#X obj 39 110 inlet value;
#X obj 121 161 inlet reset;
#X obj 66 135 inlet index;
#X obj 21 53 list prepend set;
#X obj 21 75 list trim;
#X obj 213 379 textfile;
#X msg 305 207 clear;
#X msg 171 302 write ./data/tables.txt;
#X msg 181 280 add \$1;
#X msg 230 351 rewind;
#X msg 247 329 read ./data/tables.txt;
#X obj 21 26 t s b s;
#X obj 240 572 s;
#X msg 264 274 1;
#X obj 225 464 spigot;
#X msg 285 447 0;
#X msg 395 330 symbol write;
#X msg 240 532 \$2 ./data/\$1.txt;
#X obj 240 509 pack s s;
#X obj 213 250 t b b b b;
#X obj 213 206 t b b;
#X obj 259 206 t b b;
#X msg 396 306 symbol read;
#X obj 121 184 route reset individual store read clear;
#X text 272 372 store table names to a text file to be able to call
them automatically;
#X obj 213 401 t b a;
#X obj 267 555 symbol;
#X obj 240 486 t a a;
#X obj 258 402 t b b;
#X obj 258 424 outlet;
#X connect 1 0 4 0;
#X connect 1 1 7 0;
#X connect 2 0 3 0;
#X connect 2 0 0 1;
#X connect 3 0 2 1;
#X connect 4 0 2 1;
#X connect 5 0 0 0;
#X connect 5 1 6 0;
#X connect 6 0 2 0;
#X connect 7 0 6 1;
#X connect 8 0 6 1;
#X connect 9 0 21 0;
#X connect 10 0 5 0;
#X connect 11 0 33 0;
#X connect 12 0 0 1;
#X connect 13 0 14 0;
#X connect 14 0 0 0;
#X connect 15 0 35 0;
#X connect 15 1 38 0;
#X connect 16 0 15 0;
#X connect 17 0 15 0;
#X connect 18 0 15 0;
#X connect 19 0 15 0;
#X connect 20 0 15 0;
#X connect 21 0 13 0;
#X connect 21 1 17 0;
#X connect 21 2 18 0;
#X connect 23 0 24 1;
#X connect 24 0 15 0;
#X connect 25 0 24 1;
#X connect 26 0 28 1;
#X connect 27 0 22 0;
#X connect 28 0 27 0;
#X connect 29 0 15 0;
#X connect 29 1 19 0;
#X connect 29 2 20 0;
#X connect 29 3 23 0;
#X connect 30 0 29 0;
#X connect 30 1 26 0;
#X connect 31 0 29 0;
#X connect 31 1 32 0;
#X connect 32 0 28 1;
#X connect 33 0 1 0;
#X connect 33 1 8 0;
#X connect 33 2 30 0;
#X connect 33 3 31 0;
#X connect 33 4 16 0;
#X connect 35 0 24 0;
#X connect 35 1 37 0;
#X connect 36 0 22 1;
#X connect 37 0 28 0;
#X connect 37 1 36 0;
#X connect 38 0 39 0;
#X connect 38 1 25 0;
#X restore 11 219 pd set-values-to-input-and-output;
#X msg 212 174 individual;
#X floatatom 141 200 5 0 0 2 index - -, f 5;
#X floatatom 76 200 5 0 0 2 value - -, f 5;
#X text 240 152 automate index;
#X text 277 175 set index manually;
#X obj 443 22 loadbang;
#X obj 11 329 v num_of_modules;
#X obj 11 351 t f b;
#X obj 11 373 until;
#X obj 11 416 f;
#X obj 41 417 + 1;
#X msg 26 394 0;
#X msg 11 482 resize \$1;
#X obj 11 524 s;
#X obj 11 460 tabread output_pins;
#X obj 522 64 t f b f f;
#X obj 590 81 v num_of_modules;
#X floatatom 522 45 5 0 0 0 - - -, f 5;
#X msg 219 195 store;
#X text 256 195 store values;
#X msg 223 218 read;
#X text 252 216 read values;
#X msg 26 503 symbol previous_states\$1;
#X obj 578 125 t a a a a;
#X obj 595 191 s switch_pins;
#X obj 578 211 s num_of_switches;
#X symbolatom 11 169 16 0 0 2 set_table - -, f 16;
#X msg 222 239 clear;
#X text 258 239 clear [textfile];
#X msg 470 64 3;
#X obj 470 86 t f f;
#N canvas 0 22 479 488 tables 0;
#X obj 18 13 table output_pins;
#X obj 18 33 table input_pins;
#X obj 18 53 table switch_pins;
#X obj 18 73 table num_of_switches;
#X obj 300 10 table previous_states0;
#X obj 300 30 table previous_states1;
#X obj 300 50 table previous_states2;
#X restore 522 304 pd tables;
#X obj 522 282 s pd-tables;
#X msg 522 260 obj 300 \$1 table previous_states\$2;
#X obj 443 44 t b b;
#X text 18 280 after textfiles have been read and stored to the corresponding
tables \, set the sizes of the previous states tables;
#X obj 11 438 t f f;
#X obj 11 188 t s b;
#X text 9 85 switch_pins should store the pin the first switch is attached
to on each module \, starting from 0;
#X text 9 121 num_of_switches should store the number of switches on
each module;
#X text 8 50 input_pins should store the number of pins used of the
input chips \, sequentially;
#X connect 0 0 1 0;
#X connect 1 0 2 0;
#X connect 1 0 3 0;
#X connect 2 0 1 1;
#X connect 3 0 4 0;
#X connect 3 1 7 1;
#X connect 4 0 6 0;
#X connect 5 0 1 1;
#X connect 6 0 7 0;
#X connect 7 0 49 0;
#X connect 8 0 39 0;
#X connect 14 0 15 3;
#X connect 15 0 22 0;
#X connect 16 0 15 3;
#X connect 17 0 15 2;
#X connect 18 0 15 1;
#X connect 21 0 50 0;
#X connect 22 0 23 0;
#X connect 23 0 24 0;
#X connect 23 1 27 0;
#X connect 24 0 25 0;
#X connect 25 0 26 0;
#X connect 25 0 52 0;
#X connect 26 0 25 1;
#X connect 27 0 25 1;
#X connect 28 0 29 0;
#X connect 30 0 28 0;
#X connect 31 0 0 0;
#X connect 31 1 5 0;
#X connect 31 2 8 0;
#X connect 31 3 32 0;
#X connect 33 0 31 0;
#X connect 34 0 15 3;
#X connect 36 0 15 3;
#X connect 38 0 29 1;
#X connect 39 0 41 0;
#X connect 39 1 40 0;
#X connect 39 2 9 0;
#X connect 39 3 10 0;
#X connect 42 0 53 0;
#X connect 43 0 15 3;
#X connect 45 0 46 0;
#X connect 46 0 32 0;
#X connect 46 1 8 0;
#X connect 49 0 48 0;
#X connect 50 0 36 0;
#X connect 50 1 45 0;
#X connect 52 0 30 0;
#X connect 52 1 38 0;
#X connect 53 0 15 0;
#X connect 53 1 14 0;
#X restore 14 120 pd comparison-tables;
#X obj 15 97 outlet;
#N canvas 698 75 402 314 digital 0;
#X obj 119 57 inlet;
#N canvas 467 22 714 657 set-connection 0;
#X obj 17 13 inlet;
#X obj 17 183 until;
#X obj 17 229 f;
#X obj 17 278 &;
#X obj 17 300 == 0;
#X obj 17 411 t f f;
#X obj 50 434 !=;
#X obj 17 462 spigot;
#X obj 17 484 t f f;
#X obj 17 585 pack f f f;
#X msg 17 608 element \$3 \$2 \$1;
#X obj 17 633 outlet;
#X msg 86 317 set previous_states\$1;
#X obj 65 411 tabread;
#X obj 17 160 f;
#X obj 17 88 +;
#X obj 32 65 * 128;
#X msg 34 206 1;
#X obj 49 229 * 2;
#X obj 113 501 tabwrite;
#X obj 86 339 t a a;
#X obj 45 362 f;
#X obj 75 362 + 1;
#X msg 60 339 0;
#X obj 17 136 t b b f b;
#X text 113 410 compare state of connection;
#X obj 17 38 unpack f f f f f;
#X obj 350 424 until;
#X obj 350 468 f;
#X obj 380 468 + 1;
#X msg 365 446 0;
#X obj 350 491 tabread input_pins;
#X obj 350 535 +;
#X obj 380 535 f;
#X msg 365 513 0;
#X obj 45 552 +;
#X text 311 320 accumulate used input pins to set correct inlet number
;
#X obj 45 384 t f f f;
#X text 168 500 store altered state;
#X obj 17 254 t f b;
#X text 66 6 incoming bytes refer to input byte \, output pin # \,
output chip # and input chip #;
#X obj 113 143 tabread output_pins;
#X text 41 272 bitwise AND with 1 \, 2 \, 4 \, 8 \, 16 \, 32... and
check for inequality with zero;
#N canvas 295 141 245 249 altered2 0;
#X obj 96 88 f;
#X obj 45 62 t f f f b;
#X obj 62 105 !=;
#X obj 45 157 spigot;
#X obj 62 127 t f f;
#X obj 45 39 inlet;
#X obj 45 179 outlet;
#X obj 89 157 s change2;
#X connect 0 0 2 1;
#X connect 1 0 3 0;
#X connect 1 1 2 0;
#X connect 1 2 0 1;
#X connect 1 3 0 0;
#X connect 2 0 4 0;
#X connect 3 0 6 0;
#X connect 4 0 3 1;
#X connect 4 1 7 0;
#X connect 5 0 1 0;
#X restore 86 68 pd altered2;
#N canvas 295 141 245 249 altered1 0;
#X obj 96 88 f;
#X obj 45 62 t f f f b;
#X obj 62 105 !=;
#X obj 45 157 spigot;
#X obj 62 127 t f f;
#X obj 45 39 inlet;
#X obj 45 179 outlet;
#X obj 89 157 s change1;
#X connect 0 0 2 1;
#X connect 1 0 3 0;
#X connect 1 1 2 0;
#X connect 1 2 0 1;
#X connect 1 3 0 0;
#X connect 2 0 4 0;
#X connect 3 0 6 0;
#X connect 4 0 3 1;
#X connect 4 1 7 0;
#X connect 5 0 1 0;
#X restore 311 337 pd altered1;
#N canvas 419 140 505 337 altered3 0;
#X obj 105 38 r change1;
#X obj 90 16 r change2;
#X obj 90 59 +;
#X obj 34 66 inlet;
#X obj 34 88 t b f;
#X obj 90 81 > 0;
#X obj 34 128 spigot;
#X obj 149 105 t f f f b;
#X obj 200 130 f;
#X obj 166 147 !=;
#X obj 149 269 spigot;
#X obj 149 291 f;
#X obj 149 313 outlet;
#X obj 166 169 t f f;
#X obj 34 216 spigot;
#X text 112 61 if any of the other two values has changed open the
[spigot] below;
#X text 76 212 if this value has changed you don't need to bang it
\, if it hasn't \, you should bang it if the others have changed;
#X obj 68 196 == 0;
#X connect 0 0 2 1;
#X connect 1 0 2 0;
#X connect 2 0 5 0;
#X connect 3 0 4 0;
#X connect 4 0 6 0;
#X connect 4 1 7 0;
#X connect 5 0 6 1;
#X connect 6 0 14 0;
#X connect 7 0 10 0;
#X connect 7 1 9 0;
#X connect 7 2 8 1;
#X connect 7 3 8 0;
#X connect 8 0 9 1;
#X connect 9 0 13 0;
#X connect 10 0 11 0;
#X connect 11 0 12 0;
#X connect 13 0 17 0;
#X connect 13 1 10 1;
#X connect 14 0 11 0;
#X connect 17 0 14 1;
#X restore 17 112 pd altered3;
#X obj 86 90 t f f;
#X obj 350 402 t f b b;
#X obj 311 359 moses 1;
#X obj 45 529 + 1;
#X text 70 527 + 1 cause [mtx_*~] starts counting from 1;
#X connect 0 0 26 0;
#X connect 1 0 2 0;
#X connect 2 0 18 0;
#X connect 2 0 39 0;
#X connect 3 0 4 0;
#X connect 4 0 5 0;
#X connect 5 0 7 0;
#X connect 5 1 6 0;
#X connect 6 0 7 1;
#X connect 7 0 8 0;
#X connect 8 0 9 0;
#X connect 8 1 19 0;
#X connect 9 0 10 0;
#X connect 10 0 11 0;
#X connect 12 0 20 0;
#X connect 13 0 6 1;
#X connect 14 0 1 0;
#X connect 15 0 45 0;
#X connect 16 0 15 1;
#X connect 17 0 2 1;
#X connect 18 0 2 1;
#X connect 20 0 13 0;
#X connect 20 1 19 0;
#X connect 21 0 22 0;
#X connect 21 0 37 0;
#X connect 22 0 21 1;
#X connect 23 0 21 1;
#X connect 24 0 14 0;
#X connect 24 1 17 0;
#X connect 24 2 3 1;
#X connect 24 3 23 0;
#X connect 26 0 15 0;
#X connect 26 1 16 0;
#X connect 26 2 9 2;
#X connect 26 3 43 0;
#X connect 26 4 44 0;
#X connect 27 0 28 0;
#X connect 28 0 29 0;
#X connect 28 0 31 0;
#X connect 29 0 28 1;
#X connect 30 0 28 1;
#X connect 31 0 32 0;
#X connect 32 0 33 0;
#X connect 32 0 35 1;
#X connect 33 0 32 1;
#X connect 34 0 32 1;
#X connect 35 0 9 1;
#X connect 37 0 49 0;
#X connect 37 1 13 0;
#X connect 37 2 19 1;
#X connect 39 0 3 0;
#X connect 39 1 21 0;
#X connect 41 0 14 1;
#X connect 43 0 46 0;
#X connect 44 0 48 0;
#X connect 45 0 24 0;
#X connect 46 0 12 0;
#X connect 46 1 41 0;
#X connect 47 0 27 0;
#X connect 47 1 30 0;
#X connect 47 2 34 0;
#X connect 48 0 35 1;
#X connect 48 1 47 0;
#X connect 49 0 35 0;
#X restore 119 154 pd set-connection;
#X obj 119 79 list split 5;
#X obj 119 176 outlet;
#N canvas 634 80 513 542 get-switches 0;
#X obj 21 145 until;
#X obj 21 191 f;
#X obj 53 191 + 1;
#X obj 49 336 swap 2;
#X obj 49 358 pow;
#X obj 49 380 t b f;
#X obj 49 402 f;
#X obj 49 424 &;
#X obj 49 446 == 0;
#X obj 21 514 outlet;
#X obj 21 119 t b b f;
#X text 67 168 pin on which the first switch of the module is attached
to;
#X obj 170 297 sel 0;
#X obj 21 313 t f f;
#X obj 21 235 t f f;
#X obj 21 291 spigot;
#X obj 143 274 t f f;
#X obj 143 252 <;
#X text 188 226 offset by pin # of first switch;
#X obj 21 11 inlet;
#X obj 21 33 unpack f f f;
#X obj 178 129 tabread switch_pins;
#X obj 158 201 tabread num_of_switches;
#X obj 178 151 t f f;
#X obj 158 227 +;
#X obj 36 168 f;
#X obj 21 72 +;
#X obj 55 55 * 128;
#X text 61 9 incoming bytes are input byte and input chip #;
#X obj 21 471 pack f f f;
#X msg 21 493 \$3 \$1 \$2;
#X text 87 472 spit switch values with switch indices and chip #;
#X obj 139 104 t f f f;
#N canvas 295 141 245 249 switch-altered1 0;
#X obj 96 88 f;
#X obj 45 62 t f f f b;
#X obj 62 105 !=;
#X obj 45 157 spigot;
#X obj 62 127 t f f;
#X obj 45 39 inlet;
#X obj 45 179 outlet;
#X obj 89 157 s swtich-change1;
#X connect 0 0 2 1;
#X connect 1 0 3 0;
#X connect 1 1 2 0;
#X connect 1 2 0 1;
#X connect 1 3 0 0;
#X connect 2 0 4 0;
#X connect 3 0 6 0;
#X connect 4 0 3 1;
#X connect 4 1 7 0;
#X connect 5 0 1 0;
#X restore 139 50 pd switch-altered1;
#N canvas 419 140 509 360 switch-altered2 0;
#X obj 34 66 inlet;
#X obj 34 88 t b f;
#X obj 90 81 > 0;
#X obj 34 128 spigot;
#X obj 149 105 t f f f b;
#X obj 200 130 f;
#X obj 166 147 !=;
#X obj 149 269 spigot;
#X obj 149 291 f;
#X obj 149 313 outlet;
#X obj 166 169 t f f;
#X obj 34 216 spigot;
#X obj 68 196 == 0;
#X obj 90 40 r switch-change1;
#X text 115 69 if the other value has changed open the [spigot] below
;
#X text 76 212 if this value has changed you don't need to bang it
\, if it hasn't \, you should bang it if the other has changed;
#X connect 0 0 1 0;
#X connect 1 0 3 0;
#X connect 1 1 4 0;
#X connect 2 0 3 1;
#X connect 3 0 11 0;
#X connect 4 0 7 0;
#X connect 4 1 6 0;
#X connect 4 2 5 1;
#X connect 4 3 5 0;
#X connect 5 0 6 1;
#X connect 6 0 10 0;
#X connect 7 0 8 0;
#X connect 8 0 9 0;
#X connect 10 0 12 0;
#X connect 10 1 7 1;
#X connect 11 0 8 0;
#X connect 12 0 11 1;
#X connect 13 0 2 0;
#X restore 21 94 pd switch-altered2;
#X connect 0 0 1 0;
#X connect 1 0 2 0;
#X connect 1 0 14 0;
#X connect 2 0 1 1;
#X connect 3 0 4 0;
#X connect 3 1 4 1;
#X connect 4 0 5 0;
#X connect 5 0 6 0;
#X connect 5 1 7 1;
#X connect 6 0 7 0;
#X connect 7 0 8 0;
#X connect 8 0 29 1;
#X connect 10 0 0 0;
#X connect 10 1 25 0;
#X connect 10 2 6 1;
#X connect 12 0 0 1;
#X connect 13 0 29 0;
#X connect 13 1 3 0;
#X connect 14 0 15 0;
#X connect 14 1 17 0;
#X connect 15 0 13 0;
#X connect 16 0 15 1;
#X connect 16 1 12 0;
#X connect 17 0 16 0;
#X connect 19 0 20 0;
#X connect 20 0 26 0;
#X connect 20 1 27 0;
#X connect 20 2 33 0;
#X connect 21 0 23 0;
#X connect 22 0 24 0;
#X connect 23 0 25 1;
#X connect 23 1 24 1;
#X connect 24 0 17 1;
#X connect 25 0 1 1;
#X connect 26 0 34 0;
#X connect 27 0 26 1;
#X connect 29 0 30 0;
#X connect 30 0 9 0;
#X connect 32 0 29 2;
#X connect 32 1 22 0;
#X connect 32 2 21 0;
#X connect 33 0 32 0;
#X connect 34 0 10 0;
#X restore 153 103 pd get-switches;
#N canvas 120 200 534 207 diffuse-switches 0;
#X obj 26 22 inlet;
#X obj 26 48 route 0 1 2;
#N canvas 571 129 506 230 module1 0;
#X obj 52 22 inlet;
#X obj 52 45 route 1;
#X obj 52 67 change;
#X obj 52 89 s scaleOffset1;
#X text 105 44 [route]'s arguments are the pins where the switches
are attached to on the corresponding module \, starting from 0;
#X connect 0 0 1 0;
#X connect 1 0 2 0;
#X connect 2 0 3 0;
#X restore 26 117 pd module1;
#N canvas 0 22 490 232 module2 0;
#X obj 37 63 route 1 2;
#X obj 37 129 change;
#X obj 62 85 change;
#X obj 37 39 inlet;
#X obj 37 151 s scaleOffset2;
#X obj 62 107 s pow_scaleOffset;
#X text 85 32 [route]'s arguments are the pins where the switches are
attached to on the corresponding module \, starting from 0;
#X connect 0 0 1 0;
#X connect 0 1 2 0;
#X connect 1 0 4 0;
#X connect 2 0 5 0;
#X connect 3 0 0 0;
#X restore 47 96 pd module2;
#N canvas 0 22 604 229 module3 0;
#X obj 37 29 inlet;
#X obj 37 117 change;
#X obj 62 74 change;
#X obj 37 52 route 2 3;
#X obj 62 96 s patchUpdate;
#X msg 37 139 dsp \$1;
#X obj 37 161 s pd;
#X text 98 42 [route]'s arguments are the pins where the switches are
attached to on the corresponding module \, starting from 0;
#X connect 0 0 3 0;
#X connect 1 0 5 0;
#X connect 2 0 4 0;
#X connect 3 0 1 0;
#X connect 3 1 2 0;
#X connect 5 0 6 0;
#X restore 68 74 pd module3;
#X text 99 39 [route]'s arguments are the indices of the modules \,
starting from 0;
#X connect 0 0 1 0;
#X connect 1 0 2 0;
#X connect 1 1 3 0;
#X connect 1 2 4 0;
#X restore 153 127 pd diffuse-switches;
#X connect 0 0 2 0;
#X connect 1 0 3 0;
#X connect 2 0 1 0;
#X connect 2 1 4 0;
#X connect 4 0 5 0;
#X restore 15 75 pd digital;
#X connect 0 0 1 0;
#X connect 1 0 4 0;
#X connect 4 0 3 0;
#X restore 45 159 pd receivedData;
#X text 179 92 close serial port;
#N canvas 384 329 794 421 audio-engine 0;
#N canvas 105 158 603 232 osc1-inputs 0;
#X obj 12 61 inlet~;
#X obj 102 61 inlet~;
#X obj 197 61 inlet~;
#X obj 279 61 inlet~;
#X obj 339 61 inlet~;
#X obj 434 61 inlet~;
#X obj 279 83 s~ brk1;
#X obj 197 83 s~ switch1;
#X obj 12 83 s~ freqMod1;
#X obj 102 83 s~ phaseMod1;
#X obj 339 83 s~ risePow1;
#X obj 434 83 s~ fallPow1;
#X connect 0 0 8 0;
#X connect 1 0 9 0;
#X connect 2 0 7 0;
#X connect 3 0 6 0;
#X connect 4 0 10 0;
#X connect 5 0 11 0;
#X restore 31 314 pd osc1-inputs;
#X obj 295 246 adc~;
#N canvas 460 508 303 168 osc2-inputs 0;
#X obj 12 61 inlet~;
#X obj 102 61 inlet~;
#X obj 197 61 inlet~;
#X obj 12 83 s~ freqMod2;
#X obj 102 83 s~ phaseMod2;
#X obj 197 83 s~ pow;
#X connect 0 0 3 0;
#X connect 1 0 4 0;
#X connect 2 0 5 0;
#X restore 245 314 pd osc2-inputs;
#X obj 31 109 t a a;
#X obj 58 131 s matrixMsg;
#N canvas 595 51 653 583 varShapeOsc~ 0;
#X obj 32 480 *~;
#X obj 32 519 +~;
#X obj 32 541 outlet~;
#X obj 214 330 change;
#X obj 214 352 + 1;
#X obj 214 376 swap 1;
#X obj 214 398 /;
#X obj 214 420 t f f;
#X obj 214 442 pack f 20;
#X obj 214 464 line~;
#X obj 288 437 * -1;
#X obj 288 459 + 1;
#X obj 288 481 pack f 20;
#X obj 288 503 line~;
#X obj 93 125 sel 0;
#X obj 93 147 del 20;
#X obj 93 169 0;
#X obj 214 308 r scaleOffset1;
#X obj 32 8 r matrixMsg;
#X obj 59 59 list split 2;
#X obj 93 80 route 1;
#X text 117 170 turn subpatch on or off \, according to connection
state;
#X text 148 79 [route] argument is inlet number;
#X obj 32 35 t a a;
#N canvas 223 307 433 295 freq1 0;
#X obj 32 232 +~;
#X obj 51 167 *~;
#X obj 138 129 pack f 20;
#X obj 138 151 line~;
#X obj 51 145 r~ freqMod1;
#X obj 51 209 *~;
#X obj 239 5 inlet;
#X obj 239 27 list split 1;
#X msg 319 102 \$2;
#X obj 279 82 == 1;
#X obj 279 104 t b f;
#X obj 279 127 f;
#X obj 279 149 spigot;
#X obj 279 171 pack f 20;
#X obj 279 193 line~;
#X obj 279 51 list split 1;
#X obj 32 254 outlet~;
#X obj 32 54 r osc1-freq;
#X obj 138 107 r osc1-fmIndex1;
#X text 277 1 whole matrix message;
#X text 310 82 outlet number;
#X text 344 102 gain amount;
#X obj 32 76 pack f 15;
#X obj 32 98 line~;
#X connect 0 0 16 0;
#X connect 1 0 5 0;
#X connect 2 0 3 0;
#X connect 3 0 1 1;
#X connect 4 0 1 0;
#X connect 5 0 0 1;
#X connect 6 0 7 0;
#X connect 7 1 15 0;
#X connect 8 0 11 1;
#X connect 9 0 10 0;
#X connect 10 0 11 0;
#X connect 10 1 12 1;
#X connect 11 0 12 0;
#X connect 12 0 13 0;
#X connect 13 0 14 0;
#X connect 14 0 5 1;
#X connect 15 0 9 0;
#X connect 15 1 8 0;
#X connect 17 0 22 0;
#X connect 18 0 2 0;
#X connect 22 0 23 0;
#X connect 23 0 0 0;
#X restore 32 277 pd freq1;
#N canvas 254 339 450 300 phase1 0;
#X obj 141 107 pack f 20;
#X obj 141 129 line~;
#X obj 47 145 *~;
#X obj 47 123 r~ phaseMod1;
#X obj 47 219 *~;
#X obj 231 14 inlet;
#X obj 231 36 list split 1;
#X msg 311 112 \$2;
#X obj 271 114 t b f;
#X obj 271 137 f;
#X obj 271 159 spigot;
#X obj 271 181 pack f 20;
#X obj 271 203 line~;
#X obj 271 61 list split 1;
#X obj 47 241 outlet~;
#X obj 271 92 == 2;
#X obj 141 85 r osc1-pmIndex;
#X text 267 11 whole matrix message;
#X text 300 92 outlet number;
#X text 334 112 gain amount;
#X connect 0 0 1 0;
#X connect 1 0 2 1;
#X connect 2 0 4 0;
#X connect 3 0 2 0;
#X connect 4 0 14 0;
#X connect 5 0 6 0;
#X connect 6 1 13 0;
#X connect 7 0 9 1;
#X connect 8 0 9 0;
#X connect 8 1 10 1;
#X connect 9 0 10 0;
#X connect 10 0 11 0;
#X connect 11 0 12 0;
#X connect 12 0 4 1;
#X connect 13 0 15 0;
#X connect 13 1 7 0;
#X connect 15 0 8 0;
#X connect 16 0 0 0;
#X restore 49 300 pd phase1;
#N canvas 445 258 446 345 break1 0;
#X obj 34 236 +~;
#X obj 34 174 pack f 20;
#X obj 34 196 line~;
#X obj 34 152 r osc1-brk;
#X obj 80 196 r~ brk1;
#X obj 127 15 inlet;
#X obj 127 37 list split 1;
#X msg 207 113 \$2;
#X obj 167 115 t b f;
#X obj 167 138 f;
#X obj 167 160 spigot;
#X obj 167 182 pack f 20;
#X obj 167 204 line~;
#X obj 167 62 list split 1;
#X obj 80 220 *~;
#X obj 167 93 == 4;
#X obj 34 280 outlet~;
#X obj 34 258 clip~ 0 1;
#X text 167 11 whole matrix message;
#X text 200 92 outlet number;
#X text 234 112 gain amount;
#X connect 0 0 17 0;
#X connect 1 0 2 0;
#X connect 2 0 0 0;
#X connect 3 0 1 0;
#X connect 4 0 14 0;
#X connect 5 0 6 0;
#X connect 6 1 13 0;
#X connect 7 0 9 1;
#X connect 8 0 9 0;
#X connect 8 1 10 1;
#X connect 9 0 10 0;
#X connect 10 0 11 0;
#X connect 11 0 12 0;
#X connect 12 0 14 1;
#X connect 13 0 15 0;
#X connect 13 1 7 0;
#X connect 14 0 0 1;
#X connect 15 0 8 0;
#X connect 17 0 16 0;
#X restore 84 353 pd break1;
#X obj 32 248 t a a a a a a;
#X obj 318 277 loadbang;
#X msg 318 299 0;
#X obj 93 102 change;
#X obj 93 194 switch~;
#X obj 173 36 r node1;
#X obj 158 58 f;
#X obj 158 11 r reactivate;
#X text 249 10 when patching is reactivated \, send the last connection
state value to [switch~];
#X obj 44 221 r reactivateLists;
#X text 169 220 to turn the control signals below on or off;
#X obj 32 443 varShapesOsc~;
#N canvas 636 292 448 360 risePow1 0;
#X obj 21 246 +~;
#X obj 21 161 pack f 20;
#X obj 21 183 line~;
#X obj 21 139 r osc1-risePow;
#X obj 67 183 r~ risePow1;
#X obj 138 25 inlet;
#X obj 138 47 list split 1;
#X msg 218 123 \$2;
#X obj 178 125 t b f;
#X obj 178 148 f;
#X obj 178 170 spigot;
#X obj 178 192 pack f 20;
#X obj 178 214 line~;
#X obj 178 72 list split 1;
#X obj 67 230 *~;
#X obj 21 291 outlet~;
#X obj 178 103 == 5;
#X obj 21 268 clip~ 0 1000;
#X obj 67 206 *~ 1000;
#X text 177 21 whole matrix message;
#X text 210 102 outlet number;
#X text 244 122 gain amount;
#X connect 0 0 17 0;
#X connect 1 0 2 0;
#X connect 2 0 0 0;
#X connect 3 0 1 0;
#X connect 4 0 18 0;
#X connect 5 0 6 0;
#X connect 6 1 13 0;
#X connect 7 0 9 1;
#X connect 8 0 9 0;
#X connect 8 1 10 1;
#X connect 9 0 10 0;
#X connect 10 0 11 0;
#X connect 11 0 12 0;
#X connect 12 0 14 1;
#X connect 13 0 16 0;
#X connect 13 1 7 0;
#X connect 14 0 0 1;
#X connect 16 0 8 0;
#X connect 17 0 15 0;
#X connect 18 0 14 0;
#X restore 102 382 pd risePow1;
#N canvas 475 268 447 340 fallPow1 0;
#X obj 35 223 +~;
#X obj 35 139 pack f 20;
#X obj 35 161 line~;
#X obj 35 117 r osc1-fallPow;
#X obj 80 161 r~ fallPow1;
#X obj 148 3 inlet;
#X obj 148 25 list split 1;
#X msg 228 100 \$2;
#X obj 188 102 t b f;
#X obj 188 125 f;
#X obj 188 147 spigot;
#X obj 188 169 pack f 20;
#X obj 188 191 line~;
#X obj 188 49 list split 1;
#X obj 80 207 *~;
#X obj 35 268 outlet~;
#X obj 188 80 == 6;
#X obj 35 245 clip~ 0 1000;
#X obj 80 183 *~ 1000;
#X text 187 1 whole matrix message;
#X text 220 82 outlet number;
#X text 254 102 gain amount;
#X connect 0 0 17 0;
#X connect 1 0 2 0;
#X connect 2 0 0 0;
#X connect 3 0 1 0;
#X connect 4 0 18 0;
#X connect 5 0 6 0;
#X connect 6 1 13 0;
#X connect 7 0 9 1;
#X connect 8 0 9 0;
#X connect 8 1 10 1;
#X connect 9 0 10 0;
#X connect 10 0 11 0;
#X connect 11 0 12 0;
#X connect 12 0 14 1;
#X connect 13 0 16 0;
#X connect 13 1 7 0;
#X connect 14 0 0 1;
#X connect 16 0 8 0;
#X connect 17 0 15 0;
#X connect 18 0 14 0;
#X restore 120 412 pd fallPow1;
#N canvas 291 258 338 373 switch1 0;
#X obj 27 246 +~;
#X obj 27 185 pack f 20;
#X obj 27 207 line~;
#X obj 27 163 r osc1-switch;
#X obj 68 207 r~ switch1;
#X obj 68 230 *~;
#X obj 111 24 inlet;
#X obj 111 46 list split 1;
#X msg 191 123 \$2;
#X obj 151 125 t b f;
#X obj 151 148 f;
#X obj 151 170 spigot;
#X obj 151 192 pack f 20;
#X obj 151 214 line~;
#X obj 151 72 list split 1;
#X obj 27 292 outlet~;
#X obj 151 103 == 3;
#X obj 27 268 clip~ 0 1;
#X text 147 21 whole matrix message;
#X text 180 102 outlet number;
#X text 214 122 gain amount;
#X connect 0 0 17 0;
#X connect 1 0 2 0;
#X connect 2 0 0 0;
#X connect 3 0 1 0;
#X connect 4 0 5 0;
#X connect 5 0 0 1;
#X connect 6 0 7 0;
#X connect 7 1 14 0;
#X connect 8 0 10 1;
#X connect 9 0 10 0;
#X connect 9 1 11 1;
#X connect 10 0 11 0;
#X connect 11 0 12 0;
#X connect 12 0 13 0;
#X connect 13 0 5 1;
#X connect 14 0 16 0;
#X connect 14 1 8 0;
#X connect 16 0 9 0;
#X connect 17 0 15 0;
#X restore 67 326 pd switch1;
#X connect 0 0 1 0;
#X connect 1 0 2 0;
#X connect 3 0 4 0;
#X connect 4 0 5 0;
#X connect 5 0 6 0;
#X connect 5 1 6 1;
#X connect 6 0 7 0;
#X connect 7 0 8 0;
#X connect 7 1 10 0;
#X connect 8 0 9 0;
#X connect 9 0 0 1;
#X connect 10 0 11 0;
#X connect 11 0 12 0;
#X connect 12 0 13 0;
#X connect 13 0 1 1;
#X connect 14 0 15 0;
#X connect 14 1 31 0;
#X connect 15 0 16 0;
#X connect 16 0 31 0;
#X connect 17 0 3 0;
#X connect 18 0 23 0;
#X connect 19 1 20 0;
#X connect 20 0 30 0;
#X connect 23 0 27 0;
#X connect 23 1 19 0;
#X connect 24 0 38 0;
#X connect 25 0 38 1;
#X connect 26 0 38 3;
#X connect 27 0 24 0;
#X connect 27 1 25 0;
#X connect 27 2 41 0;
#X connect 27 3 26 0;
#X connect 27 4 39 0;
#X connect 27 5 40 0;
#X connect 28 0 29 0;
#X connect 29 0 4 0;
#X connect 30 0 14 0;
#X connect 32 0 33 1;
#X connect 33 0 30 0;
#X connect 34 0 33 0;
#X connect 36 0 27 0;
#X connect 38 0 0 0;
#X connect 39 0 38 4;
#X connect 40 0 38 5;
#X connect 41 0 38 2;
#X restore 102 225 pd varShapeOsc~;
#N canvas 458 102 653 583 powSine~ 0;
#X obj 32 480 *~;
#X obj 32 519 +~;
#X obj 32 541 outlet~;
#X obj 214 330 change;
#X obj 214 352 + 1;
#X obj 214 376 swap 1;
#X obj 214 398 /;
#X obj 214 420 t f f;
#X obj 214 442 pack f 20;
#X obj 214 464 line~;
#X obj 288 437 * -1;
#X obj 288 459 + 1;
#X obj 288 481 pack f 20;
#X obj 288 503 line~;
#X obj 104 125 sel 0;
#X obj 104 147 del 20;
#X obj 104 169 0;
#X obj 32 8 r matrixMsg;
#X obj 64 59 list split 2;
#X text 128 170 turn subpatch on or off \, according to connection
state;
#X text 159 79 [route] argument is inlet number;
#X obj 32 35 t a a;
#X obj 318 277 loadbang;
#X msg 318 299 0;
#X obj 104 102 change;
#X obj 104 194 switch~;
#X obj 158 58 f;
#X obj 158 11 r reactivate;
#X text 249 10 when patching is reactivated \, send the last connection
state value to [switch~];
#X obj 44 221 r reactivateLists;
#X text 169 220 to turn the control signals below on or off;
#N canvas 308 273 452 301 freq2 0;
#X obj 32 232 +~;
#X obj 51 167 *~;
#X obj 138 129 pack f 20;
#X obj 138 151 line~;
#X obj 51 209 *~;
#X obj 239 5 inlet;
#X obj 239 27 list split 1;
#X msg 319 102 \$2;
#X obj 279 104 t b f;
#X obj 279 127 f;
#X obj 279 149 spigot;
#X obj 279 171 pack f 20;
#X obj 279 193 line~;
#X obj 279 51 list split 1;
#X obj 32 254 outlet~;
#X obj 51 145 r~ freqMod2;
#X obj 138 107 r osc2-fmIndex;
#X obj 32 64 r osc2-freq;
#X obj 279 82 == 7;
#X text 277 1 whole matrix message;
#X text 310 82 outlet number;
#X text 344 102 gain amount;
#X obj 32 86 pack f 15;
#X obj 32 108 line~;
#X connect 0 0 14 0;
#X connect 1 0 4 0;
#X connect 2 0 3 0;
#X connect 3 0 1 1;
#X connect 4 0 0 1;
#X connect 5 0 6 0;
#X connect 6 1 13 0;
#X connect 7 0 9 1;
#X connect 8 0 9 0;
#X connect 8 1 10 1;
#X connect 9 0 10 0;
#X connect 10 0 11 0;
#X connect 11 0 12 0;
#X connect 12 0 4 1;
#X connect 13 0 18 0;
#X connect 13 1 7 0;
#X connect 15 0 1 0;
#X connect 16 0 2 0;
#X connect 17 0 22 0;
#X connect 18 0 8 0;
#X connect 22 0 23 0;
#X connect 23 0 0 0;
#X restore 32 277 pd freq2;
#N canvas 276 162 450 300 phase2 0;
#X obj 141 107 pack f 20;
#X obj 141 129 line~;
#X obj 47 145 *~;
#X obj 47 219 *~;
#X obj 221 14 inlet;
#X obj 221 36 list split 1;
#X msg 301 114 \$2;
#X obj 261 114 t b f;
#X obj 261 137 f;
#X obj 261 159 spigot;
#X obj 261 181 pack f 20;
#X obj 261 203 line~;
#X obj 261 61 list split 1;
#X obj 47 241 outlet~;
#X obj 47 123 r~ phaseMod2;
#X obj 141 85 r osc2-pmIndex;
#X obj 261 92 == 8;
#X text 257 11 whole matrix message;
#X text 290 92 outlet number;
#X text 324 112 gain amount;
#X connect 0 0 1 0;
#X connect 1 0 2 1;
#X connect 2 0 3 0;
#X connect 3 0 13 0;
#X connect 4 0 5 0;
#X connect 5 1 12 0;
#X connect 6 0 8 1;
#X connect 7 0 8 0;
#X connect 7 1 9 1;
#X connect 8 0 9 0;
#X connect 9 0 10 0;
#X connect 10 0 11 0;
#X connect 11 0 3 1;
#X connect 12 0 16 0;
#X connect 12 1 6 0;
#X connect 14 0 2 0;
#X connect 15 0 0 0;
#X connect 16 0 7 0;
#X restore 49 300 pd phase2;
#X obj 214 308 r scaleOffset2;
#X obj 176 36 r node2;
#X obj 104 80 route 2;
#X obj 32 443 powSine~;
#N canvas 580 248 644 361 pow 0;
#X obj 97 241 *~;
#X obj 211 14 inlet;
#X obj 211 36 list split 1;
#X msg 291 114 \$2;
#X obj 251 114 t b f;
#X obj 251 137 f;
#X obj 251 159 spigot;
#X obj 251 181 pack f 20;
#X obj 251 203 line~;
#X obj 251 61 list split 1;
#X obj 19 317 outlet~;
#X obj 97 133 r~ pow;
#X obj 19 47 r osc2-pow;
#X obj 19 69 pack f 20;
#X obj 19 91 line~;
#X obj 19 287 clip~ 0 1;
#X obj 251 92 == 9;
#X text 247 11 whole matrix message;
#X text 280 92 outlet number;
#X text 314 112 gain amount;
#X obj 34 200 *~ -1;
#X obj 34 222 +~ 1;
#X obj 19 247 *~;
#X obj 112 220 *~;
#X text 121 238 if a signal is connected to this control input \, the
respective knob becomes the index of the signal;
#X obj 393 31 loadbang;
#X msg 393 53 0;
#X text 418 54 start off with no connection;
#N canvas 409 164 436 383 scale-offset 0;
#X obj 49 234 *~;
#X obj 49 273 +~;
#X obj 151 83 change;
#X obj 151 105 + 1;
#X obj 151 129 swap 1;
#X obj 151 151 /;
#X obj 151 173 t f f;
#X obj 151 195 pack f 20;
#X obj 151 217 line~;
#X obj 225 190 * -1;
#X obj 225 212 + 1;
#X obj 225 234 pack f 20;
#X obj 225 256 line~;
#X obj 280 44 loadbang;
#X msg 280 66 0;
#X obj 49 208 inlet~;
#X obj 49 295 outlet~;
#X obj 151 61 r pow_scaleOffset;
#X connect 0 0 1 0;
#X connect 1 0 16 0;
#X connect 2 0 3 0;
#X connect 3 0 4 0;
#X connect 4 0 5 0;
#X connect 4 1 5 1;
#X connect 5 0 6 0;
#X connect 6 0 7 0;
#X connect 6 1 9 0;
#X connect 7 0 8 0;
#X connect 8 0 0 1;
#X connect 9 0 10 0;
#X connect 10 0 11 0;
#X connect 11 0 12 0;
#X connect 12 0 1 1;
#X connect 13 0 14 0;
#X connect 14 0 3 0;
#X connect 15 0 0 0;
#X connect 17 0 2 0;
#X restore 97 157 pd scale-offset;
#X connect 0 0 15 0;
#X connect 1 0 2 0;
#X connect 2 1 9 0;
#X connect 3 0 5 1;
#X connect 4 0 5 0;
#X connect 4 1 6 1;
#X connect 5 0 6 0;
#X connect 6 0 7 0;
#X connect 7 0 8 0;
#X connect 8 0 20 0;
#X connect 8 0 23 1;
#X connect 9 0 16 0;
#X connect 9 1 3 0;
#X connect 11 0 28 0;
#X connect 12 0 13 0;
#X connect 13 0 14 0;
#X connect 14 0 22 0;
#X connect 14 0 23 0;
#X connect 15 0 10 0;
#X connect 16 0 4 0;
#X connect 20 0 21 0;
#X connect 21 0 22 1;
#X connect 22 0 15 0;
#X connect 23 0 0 1;
#X connect 25 0 26 0;
#X connect 26 0 5 0;
#X connect 28 0 0 0;
#X restore 63 323 pd pow;
#X obj 32 248 t a a a;
#X connect 0 0 1 0;
#X connect 1 0 2 0;
#X connect 3 0 4 0;
#X connect 4 0 5 0;
#X connect 5 0 6 0;
#X connect 5 1 6 1;
#X connect 6 0 7 0;
#X connect 7 0 8 0;
#X connect 7 1 10 0;
#X connect 8 0 9 0;
#X connect 9 0 0 1;
#X connect 10 0 11 0;
#X connect 11 0 12 0;
#X connect 12 0 13 0;
#X connect 13 0 1 1;
#X connect 14 0 15 0;
#X connect 14 1 25 0;
#X connect 15 0 16 0;
#X connect 16 0 25 0;
#X connect 17 0 21 0;
#X connect 18 1 35 0;
#X connect 21 0 38 0;
#X connect 21 1 18 0;
#X connect 22 0 23 0;
#X connect 23 0 4 0;
#X connect 24 0 14 0;
#X connect 26 0 24 0;
#X connect 27 0 26 0;
#X connect 29 0 38 0;
#X connect 31 0 36 0;
#X connect 32 0 36 1;
#X connect 33 0 3 0;
#X connect 34 0 26 1;
#X connect 35 0 24 0;
#X connect 36 0 0 0;
#X connect 37 0 36 2;
#X connect 38 0 31 0;
#X connect 38 1 32 0;
#X connect 38 2 37 0;
#X restore 173 246 pd powSine~;
#X obj 31 279 mtx_mul~ 11 4 15 ...........................................
;
#X obj 388 226 del;
#X obj 429 209 t f f;
#X obj 429 187 spigot;
#X obj 388 122 t f f;
#X text 361 47 when patching is deactivated \, send potentiometer values
to control ramp time for [mtx_*~];
#X obj 388 145 sel 1;
#X obj 31 83 spigot;
#X obj 361 99 t f f;
#X obj 140 66 t f f;
#X obj 31 60 t a a;
#X obj 361 77 r patchUpdate;
#N canvas 404 393 859 336 whole-matrix 0;
#X obj 13 22 inlet;
#X obj 73 82 inlet;
#X obj 13 283 outlet;
#X obj 13 197 mtx 11 4;
#X text 68 195 matrix MUST have same dimensions as [mtx_*~];
#X obj 13 44 t a a;
#X obj 417 61 list split 2;
#X msg 484 128 symbol node\$1;
#X obj 451 86 unpack;
#X obj 451 145 s;
#X obj 73 128 t b b;
#X obj 100 154 s reactivate;
#X text 494 85 and send state to corresponding node to control [switch~]
;
#X obj 73 106 sel 1;
#X text 109 106 bang when patching update is reactivated;
#X text 497 60 get inlet number and connection state;
#X obj 124 258 mtx_print;
#X obj 13 219 t a a;
#X obj 124 236 spigot;
#X obj 157 217 tgl 15 0 empty empty debug 17 7 0 10 -262144 -1 -1 0
1;
#X text 55 19 constantly updated matrix that is output only when the
patching update is being REactivated;
#X connect 0 0 5 0;
#X connect 1 0 13 0;
#X connect 3 0 17 0;
#X connect 5 0 3 0;
#X connect 5 1 6 0;
#X connect 6 1 8 0;
#X connect 7 0 9 1;
#X connect 8 0 9 0;
#X connect 8 1 7 0;
#X connect 10 0 3 0;
#X connect 10 1 11 0;
#X connect 13 0 10 0;
#X connect 17 0 2 0;
#X connect 17 1 18 0;
#X connect 18 0 16 0;
#X connect 19 0 18 1;
#X restore 80 93 pd whole-matrix;
#X obj 429 164 r ramp;
#X msg 388 248 15;
#X text 417 242 when patching is reactivated \, delay a bang with the
potentiometer value to set [mtx_*~] back to 15ms;
#N canvas 270 112 244 223 output 0;
#X obj 48 147 dac~;
#N canvas 0 22 275 364 limit 0;
#X obj 47 66 inlet~;
#X obj 47 295 outlet~;
#X obj 47 271 hip~ 20;
#X obj 62 97 env~;
#X obj 62 122 dbtorms;
#X obj 62 169 line~;
#X obj 62 217 +~ 1;
#X obj 47 242 /~;
#X msg 62 145 \$1 10;
#X obj 62 192 lop~ 40;
#X text 53 25 Taken from chaosmonster;
#X connect 0 0 3 0;
#X connect 0 0 7 0;
#X connect 2 0 1 0;
#X connect 3 0 4 0;
#X connect 4 0 8 0;
#X connect 5 0 9 0;
#X connect 6 0 7 1;
#X connect 7 0 2 0;
#X connect 8 0 5 0;
#X connect 9 0 6 0;
#X restore 48 65 pd limit;
#X obj 48 37 inlet~;
#X obj 69 87 inlet~;
#N canvas 0 22 275 364 limit 0;
#X obj 47 66 inlet~;
#X obj 47 295 outlet~;
#X obj 47 271 hip~ 20;
#X obj 62 97 env~;
#X obj 62 122 dbtorms;
#X obj 62 169 line~;
#X obj 62 217 +~ 1;
#X obj 47 242 /~;
#X msg 62 145 \$1 10;
#X obj 62 192 lop~ 40;
#X text 53 25 Taken from chaosmonster;
#X connect 0 0 3 0;
#X connect 0 0 7 0;
#X connect 2 0 1 0;
#X connect 3 0 4 0;
#X connect 4 0 8 0;
#X connect 5 0 9 0;
#X connect 6 0 7 1;
#X connect 7 0 2 0;
#X connect 8 0 5 0;
#X connect 9 0 6 0;
#X restore 69 112 pd limit;
#X connect 1 0 0 0;
#X connect 2 0 1 0;
#X connect 3 0 4 0;
#X connect 4 0 0 1;
#X restore 337 314 pd output;
#X obj 462 139 == 0;
#X obj 213 57 print;
#X obj 213 34 spigot;
#X obj 246 14 tgl 15 0 empty empty debug 17 7 0 10 -262144 -1 -1 0
1;
#N canvas 0 22 450 278 (subpatch) 0;
#X array array1 512 float 2;
#X coords 0 1 511 -1 200 140 1;
#X restore 557 84 graph;
#X obj 438 336 tgl 15 0 empty empty empty 17 7 0 10 -262144 -1 -1 0
1;
#X obj 438 356 metro 100;
#X obj 438 378 tabwrite~ array1;
#X obj 31 37 inlet;
#X connect 1 0 7 3;
#X connect 1 1 7 4;
#X connect 3 0 7 0;
#X connect 3 1 4 0;
#X connect 3 1 26 0;
#X connect 5 0 7 1;
#X connect 6 0 7 2;
#X connect 6 0 31 0;
#X connect 7 0 0 0;
#X connect 7 1 0 1;
#X connect 7 2 0 2;
#X connect 7 3 0 3;
#X connect 7 4 0 4;
#X connect 7 5 0 5;
#X connect 7 6 2 0;
#X connect 7 7 2 1;
#X connect 7 8 2 2;
#X connect 7 9 23 0;
#X connect 7 10 23 1;
#X connect 8 0 21 0;
#X connect 9 0 8 1;
#X connect 9 1 7 5;
#X connect 10 0 9 0;
#X connect 11 0 13 0;
#X connect 11 1 24 0;
#X connect 13 0 8 0;
#X connect 14 0 3 0;
#X connect 15 0 16 0;
#X connect 15 1 11 0;
#X connect 16 0 14 1;
#X connect 16 1 19 1;
#X connect 17 0 14 0;
#X connect 17 1 19 0;
#X connect 18 0 15 0;
#X connect 19 0 7 0;
#X connect 20 0 10 0;
#X connect 21 0 7 5;
#X connect 24 0 10 1;
#X connect 26 0 25 0;
#X connect 27 0 26 1;
#X connect 29 0 30 0;
#X connect 30 0 31 0;
#X connect 32 0 17 0;
#X restore 45 181 pd audio-engine;
#X text 44 44 check serial devices;
#X floatatom 112 83 5 0 0 0 - - -, f 5;
#X text 110 68 open serial port;
#X connect 0 0 3 0;
#X connect 1 0 0 0;
#X connect 2 0 0 2;
#X connect 3 0 5 0;
#X connect 7 0 0 1;
