#N canvas 583 51 468 418 10;
#X declare -path ../generic_abstractions;
#X obj 17 259 *~;
#X obj 17 303 +~;
#X obj 99 221 pack f 20;
#X obj 99 243 line~;
#X obj 201 221 * -1;
#X obj 201 243 + 1;
#X obj 201 265 pack f 20;
#X obj 201 287 line~;
#X obj 17 131 powSine~;
#N canvas 580 256 676 360 pow 0;
#X obj 97 175 *~;
#X obj 254 182 pack f 20;
#X obj 254 204 line~;
#X obj 19 277 outlet~;
#X obj 19 69 pack f 20;
#X obj 19 91 line~;
#X obj 38 160 *~ -1;
#X obj 38 182 +~ 1;
#X obj 19 207 *~;
#X obj 97 220 *~;
#X obj 97 197 +~ 0.5;
#X text 123 226 if a signal is connected to this control input \, the
respective knob becomes the index of the signal \, with the control
signal centered at 0.5;
#X obj 115 153 r~;
#X obj 19 47 inlet;
#X obj 328 136 r patchUpdate;
#X obj 291 115 r reactivate;
#X obj 115 131 r \$0-3rd_input;
#X obj 254 158 inlet_state;
#X obj 254 91 r \$0-3rd_inlet;
#X connect 0 0 10 0;
#X connect 1 0 2 0;
#X connect 2 0 6 0;
#X connect 2 0 9 1;
#X connect 4 0 5 0;
#X connect 5 0 8 0;
#X connect 5 0 0 0;
#X connect 6 0 7 0;
#X connect 7 0 8 1;
#X connect 8 0 3 0;
#X connect 9 0 3 0;
#X connect 10 0 9 0;
#X connect 12 0 0 1;
#X connect 13 0 4 0;
#X connect 14 0 17 2;
#X connect 15 0 17 1;
#X connect 16 0 12 0;
#X connect 17 0 1 0;
#X connect 18 0 17 0;
#X restore 161 87 pd pow;
#X obj 255 185 switch~;
#X obj 17 10 declare -path ../generic_abstractions;
#X obj 255 139 r \$0-1st_outlet;
#X obj 17 375 throw~;
#X obj 27 348 route 0;
#X obj 99 130 r switches;
#X obj 99 152 route \$1;
#N canvas 644 145 511 460 scale-offset 0;
#X obj 36 61 change;
#X obj 36 273 + 1;
#X obj 36 297 swap 1;
#X obj 36 319 /;
#X obj 36 341 t f f;
#X obj 54 222 loadbang;
#X msg 54 244 0;
#X obj 36 385 outlet;
#X obj 68 364 outlet;
#X obj 36 86 swap;
#X obj 36 108 pack;
#X obj 36 130 route 1 0;
#X obj 36 197 f;
#X text 65 184 when the patching update is deactivated \, store value
and output it when it is reactivated;
#X obj 221 69 r patchUpdate;
#X obj 109 130 r reactivate;
#X obj 36 39 inlet;
#X connect 0 0 9 0;
#X connect 1 0 2 0;
#X connect 2 0 3 0;
#X connect 2 1 3 1;
#X connect 3 0 4 0;
#X connect 4 0 7 0;
#X connect 4 1 8 0;
#X connect 5 0 6 0;
#X connect 6 0 1 0;
#X connect 9 0 10 0;
#X connect 9 1 10 1;
#X connect 10 0 11 0;
#X connect 11 0 12 0;
#X connect 11 1 12 1;
#X connect 12 0 1 0;
#X connect 14 0 9 1;
#X connect 15 0 12 0;
#X connect 16 0 0 0;
#X restore 99 197 pd scale-offset;
#N canvas 37 158 653 330 freq 0;
#X obj 51 229 *~;
#X obj 209 191 pack f 20;
#X obj 209 213 line~;
#X obj 32 260 outlet~;
#X obj 32 36 pack f 15;
#X obj 32 58 line~;
#X obj 283 144 r patchUpdate;
#X obj 246 122 r reactivate;
#X obj 32 130 *~;
#X obj 50 108 +~ 1;
#X obj 50 86 *~ -1;
#X text 207 233 if a signal is connected to the frequency inlet \,
that signal will control the frequency of this oscillator;
#X obj 32 14 inlet;
#X obj 51 205 r~;
#X obj 51 182 r \$0-1st_input;
#X obj 209 99 r \$0-1st_inlet;
#X obj 209 166 inlet_state;
#X connect 0 0 3 0;
#X connect 1 0 2 0;
#X connect 2 0 0 1;
#X connect 2 0 10 0;
#X connect 4 0 5 0;
#X connect 5 0 8 0;
#X connect 6 0 16 2;
#X connect 7 0 16 1;
#X connect 8 0 3 0;
#X connect 9 0 8 1;
#X connect 10 0 9 0;
#X connect 12 0 4 0;
#X connect 13 0 0 0;
#X connect 14 0 13 0;
#X connect 15 0 16 0;
#X connect 16 0 1 0;
#X restore 17 87 pd freq;
#N canvas 235 233 392 380 phase 0;
#X obj 161 47 pack f 20;
#X obj 161 69 line~;
#X obj 47 85 *~;
#X obj 47 269 *~;
#X obj 101 231 pack f 20;
#X obj 101 253 line~;
#X obj 47 291 outlet~;
#X obj 175 188 r patchUpdate;
#X obj 138 167 r reactivate;
#X obj 161 27 inlet;
#X obj 47 62 r~;
#X obj 47 39 r \$0-2nd_input;
#X obj 101 143 r \$0-2nd_inlet;
#X obj 101 210 inlet_state;
#X connect 0 0 1 0;
#X connect 1 0 2 1;
#X connect 2 0 3 0;
#X connect 3 0 6 0;
#X connect 4 0 5 0;
#X connect 5 0 3 1;
#X connect 7 0 13 2;
#X connect 8 0 13 1;
#X connect 9 0 0 0;
#X connect 10 0 2 0;
#X connect 11 0 10 0;
#X connect 12 0 13 0;
#X connect 13 0 4 0;
#X restore 89 87 pd phase;
#N canvas 402 110 718 479 set_inputs_and_connection_states 0;
#X obj 27 168 s \$0-1st_input;
#X obj 51 148 s \$0-2nd_input;
#X obj 76 128 s \$0-3rd_input;
#X obj 27 246 r inlet_states;
#X obj 27 268 unpack;
#X obj 27 312 pack;
#X obj 27 397 s \$0-1st_inlet;
#X obj 51 377 s \$0-2nd_inlet;
#X obj 76 357 s \$0-3rd_inlet;
#X text 28 39 this sets the correct names to each [r~ ];
#X text 26 215 this sets the connection state of the modules inlets
(the matrix's outlets);
#X obj 272 331 unpack;
#X obj 272 375 pack;
#X obj 272 419 s \$0-1st_outlet;
#X text 271 278 this sets the connection state of the modules outlets
(the matrix's inlets);
#X obj 272 309 r outlet_states;
#X obj 27 105 route 0 1 2;
#X obj 27 290 - \$3;
#X obj 272 353 - \$5;
#X obj 272 397 route 1;
#X obj 27 334 route 1 2 3;
#X obj 27 82 set_inputs \$2 \$3;
#X obj 27 59 loadbang;
#X connect 3 0 4 0;
#X connect 4 0 17 0;
#X connect 4 1 5 1;
#X connect 5 0 20 0;
#X connect 11 0 18 0;
#X connect 11 1 12 1;
#X connect 12 0 19 0;
#X connect 15 0 11 0;
#X connect 16 0 0 0;
#X connect 16 1 1 0;
#X connect 16 2 2 0;
#X connect 17 0 5 0;
#X connect 18 0 12 0;
#X connect 19 0 13 0;
#X connect 20 0 6 0;
#X connect 20 1 7 0;
#X connect 20 2 8 0;
#X connect 21 0 16 0;
#X connect 22 0 21 0;
#X restore 17 33 pd set_inputs_and_connection_states;
#X obj 99 174 route 1;
#N canvas 447 62 721 537 assemble_and_scale 0;
#X obj 35 143 +;
#X obj 56 121 * 128;
#X obj 121 143 +;
#X obj 142 121 * 128;
#X obj 164 95 +;
#X obj 186 73 * 128;
#X obj 35 387 outlet;
#X obj 121 255 / 8191;
#X obj 121 277 * 2;
#X obj 121 299 outlet;
#X obj 164 158 / 8191;
#X obj 164 180 pow 4;
#X obj 164 202 * 100;
#X obj 164 224 outlet;
#X obj 35 41 unpack f f f f f f f f;
#X obj 78 326 debounce_float 10;
#X obj 78 96 +;
#X obj 99 73 * 128;
#X obj 78 348 + 1;
#X obj 35 365 /;
#X obj 267 248 \$3;
#X obj 267 226 r \$1-get_inlet;
#X text 266 190 store the first inlet number to a global table to use
it in the [pd check-inlet-num] subpatch;
#X obj 267 270 s give_inlet;
#X obj 35 18 r module\$1;
#X connect 0 0 19 0;
#X connect 1 0 0 1;
#X connect 2 0 7 0;
#X connect 3 0 2 1;
#X connect 4 0 10 0;
#X connect 5 0 4 1;
#X connect 7 0 8 0;
#X connect 8 0 9 0;
#X connect 10 0 11 0;
#X connect 11 0 12 0;
#X connect 12 0 13 0;
#X connect 14 0 0 0;
#X connect 14 1 1 0;
#X connect 14 2 16 0;
#X connect 14 3 17 0;
#X connect 14 4 2 0;
#X connect 14 5 3 0;
#X connect 14 6 4 0;
#X connect 14 7 5 0;
#X connect 15 0 18 0;
#X connect 16 0 15 0;
#X connect 17 0 16 1;
#X connect 18 0 19 1;
#X connect 19 0 6 0;
#X connect 20 0 23 0;
#X connect 21 0 20 0;
#X connect 24 0 14 0;
#X restore 17 58 pd assemble_and_scale;
#X obj 27 326 set_outputs \$4 \$5;
#X obj 255 163 switch_state;
#X connect 0 0 1 0;
#X connect 1 0 13 0;
#X connect 2 0 3 0;
#X connect 3 0 0 1;
#X connect 4 0 5 0;
#X connect 5 0 6 0;
#X connect 6 0 7 0;
#X connect 7 0 1 1;
#X connect 8 0 0 0;
#X connect 9 0 8 2;
#X connect 12 0 24 0;
#X connect 14 0 13 0;
#X connect 15 0 16 0;
#X connect 16 0 21 0;
#X connect 17 0 2 0;
#X connect 17 1 4 0;
#X connect 18 0 8 0;
#X connect 19 0 8 1;
#X connect 21 0 17 0;
#X connect 22 0 18 0;
#X connect 22 1 19 0;
#X connect 22 2 9 0;
#X connect 23 0 14 0;
#X connect 24 0 10 0;
