#N canvas 459 191 296 310 10;
#X obj 54 46 loadbang;
#X obj 54 68 t b b;
#X obj 54 112 until;
#X obj 54 134 f;
#X obj 85 134 + 1;
#X obj 86 177 +;
#X obj 54 156 t f f;
#X obj 54 246 outlet;
#X obj 54 199 pack;
#X msg 54 221 \$1 set output\$2;
#X obj 54 90 \$1;
#X obj 104 90 \$2;
#X connect 0 0 1 0;
#X connect 1 0 10 0;
#X connect 1 1 11 0;
#X connect 2 0 3 0;
#X connect 3 0 4 0;
#X connect 3 0 6 0;
#X connect 4 0 3 1;
#X connect 5 0 8 1;
#X connect 6 0 8 0;
#X connect 6 1 5 0;
#X connect 8 0 9 0;
#X connect 9 0 7 0;
#X connect 10 0 2 0;
#X connect 11 0 5 1;
