#N canvas 632 81 537 600 10;
#X declare -path ../generic_abstractions;
#X obj 39 436 *~;
#X obj 39 479 +~;
#X obj 75 398 pack f 20;
#X obj 75 420 line~;
#X obj 177 397 * -1;
#X obj 177 419 + 1;
#X obj 177 441 pack f 20;
#X obj 177 463 line~;
#X obj 299 187 switch~;
#X obj 39 275 varShapesOsc~;
#N canvas 37 158 653 330 freq 0;
#X obj 51 229 *~;
#X obj 209 191 pack f 20;
#X obj 209 213 line~;
#X obj 32 260 outlet~;
#X obj 32 36 pack f 15;
#X obj 32 58 line~;
#X obj 283 144 r patchUpdate;
#X obj 246 122 r reactivate;
#X obj 32 130 *~;
#X obj 50 108 +~ 1;
#X obj 50 86 *~ -1;
#X text 207 233 if a signal is connected to the frequency inlet \,
that signal will control the frequency of this oscillator;
#X obj 32 14 inlet;
#X obj 51 205 r~;
#X obj 51 182 r \$0-1st_input;
#X obj 209 99 r \$0-1st_inlet;
#X obj 209 166 inlet_state;
#X connect 0 0 3 0;
#X connect 1 0 2 0;
#X connect 2 0 0 1;
#X connect 2 0 10 0;
#X connect 4 0 5 0;
#X connect 5 0 8 0;
#X connect 6 0 16 2;
#X connect 7 0 16 1;
#X connect 8 0 3 0;
#X connect 9 0 8 1;
#X connect 10 0 9 0;
#X connect 12 0 4 0;
#X connect 13 0 0 0;
#X connect 14 0 13 0;
#X connect 15 0 16 0;
#X connect 16 0 1 0;
#X restore 39 109 pd freq;
#N canvas 138 182 429 369 phase 0;
#X obj 161 47 pack f 20;
#X obj 161 69 line~;
#X obj 47 85 *~;
#X obj 47 269 *~;
#X obj 101 231 pack f 20;
#X obj 101 253 line~;
#X obj 47 291 outlet~;
#X obj 175 188 r patchUpdate;
#X obj 138 167 r reactivate;
#X obj 161 27 inlet;
#X obj 47 62 r~;
#X obj 47 39 r \$0-2nd_input;
#X obj 101 210 inlet_state;
#X obj 101 143 r \$0-2nd_inlet;
#X connect 0 0 1 0;
#X connect 1 0 2 1;
#X connect 2 0 3 0;
#X connect 3 0 6 0;
#X connect 4 0 5 0;
#X connect 5 0 3 1;
#X connect 7 0 12 2;
#X connect 8 0 12 1;
#X connect 9 0 0 0;
#X connect 10 0 2 0;
#X connect 11 0 10 0;
#X connect 12 0 4 0;
#X connect 13 0 12 0;
#X restore 77 132 pd phase;
#N canvas 178 162 654 367 switch 0;
#X obj 27 121 pack f 20;
#X obj 27 143 line~;
#X obj 27 312 outlet~;
#X obj 27 288 clip~ 0 1;
#X obj 105 203 *~;
#X obj 242 187 pack f 20;
#X obj 242 209 line~;
#X obj 45 189 *~ -1;
#X obj 45 211 +~ 1;
#X obj 27 236 *~;
#X obj 105 225 *~;
#X obj 262 133 loadbang;
#X msg 262 155 0;
#X text 287 156 start off with no connection;
#X obj 316 80 r patchUpdate;
#X obj 279 60 r reactivate;
#X text 134 233 if a signal is connected to this control input \, the
respective knob becomes the index of the signal;
#X obj 27 99 inlet;
#X obj 123 179 r~;
#X obj 123 157 r \$0-3rd_input;
#X obj 242 40 r \$0-3rd_inlet;
#X obj 242 102 inlet_state;
#X connect 0 0 1 0;
#X connect 1 0 9 0;
#X connect 1 0 4 0;
#X connect 3 0 2 0;
#X connect 4 0 10 0;
#X connect 5 0 6 0;
#X connect 6 0 7 0;
#X connect 6 0 10 1;
#X connect 7 0 8 0;
#X connect 8 0 9 1;
#X connect 9 0 3 0;
#X connect 10 0 3 0;
#X connect 11 0 12 0;
#X connect 12 0 5 0;
#X connect 14 0 21 2;
#X connect 15 0 21 1;
#X connect 17 0 0 0;
#X connect 18 0 4 1;
#X connect 19 0 18 0;
#X connect 20 0 21 0;
#X connect 21 0 5 0;
#X restore 116 158 pd switch;
#N canvas 61 189 644 348 break 0;
#X obj 34 44 pack f 20;
#X obj 34 66 line~;
#X obj 34 270 outlet~;
#X obj 34 248 clip~ 0 1;
#X obj 113 160 *~;
#X obj 240 167 pack f 20;
#X obj 240 189 line~;
#X obj 52 160 *~ -1;
#X obj 52 182 +~ 1;
#X obj 34 207 *~;
#X obj 113 205 *~;
#X obj 260 113 loadbang;
#X msg 260 135 0;
#X text 285 136 start off with no connection;
#X obj 314 68 r patchUpdate;
#X obj 277 48 r reactivate;
#X text 343 90 [param_on-off] argument is outlet number;
#X obj 113 93 *~ 0.5;
#X obj 113 182 +~ 0.5;
#X text 146 213 if a signal is connected to this control input \, the
respective knob becomes the index of the signal with the control signal
centered at 0.5;
#X obj 34 22 inlet;
#X obj 132 137 r~;
#X obj 132 115 r \$0-4th_input;
#X obj 240 26 r \$0-4th_inlet;
#X obj 240 89 inlet_state;
#X connect 0 0 1 0;
#X connect 1 0 9 0;
#X connect 1 0 17 0;
#X connect 3 0 2 0;
#X connect 4 0 18 0;
#X connect 5 0 6 0;
#X connect 6 0 7 0;
#X connect 6 0 10 1;
#X connect 7 0 8 0;
#X connect 8 0 9 1;
#X connect 9 0 3 0;
#X connect 10 0 3 0;
#X connect 11 0 12 0;
#X connect 12 0 5 0;
#X connect 14 0 24 2;
#X connect 15 0 24 1;
#X connect 17 0 4 0;
#X connect 18 0 10 0;
#X connect 20 0 0 0;
#X connect 21 0 4 1;
#X connect 22 0 21 0;
#X connect 23 0 24 0;
#X connect 24 0 5 0;
#X restore 154 185 pd break;
#N canvas 219 164 679 336 risePow 0;
#X obj 21 71 pack f 20;
#X obj 21 93 line~;
#X obj 21 282 outlet~;
#X obj 21 259 clip~ 0 1000;
#X obj 99 167 *~;
#X obj 226 173 pack f 20;
#X obj 226 195 line~;
#X obj 40 160 *~ -1;
#X obj 40 182 +~ 1;
#X obj 21 207 *~;
#X obj 99 211 *~;
#X obj 246 119 loadbang;
#X msg 246 141 0;
#X text 271 142 start off with no connection;
#X obj 300 71 r patchUpdate;
#X obj 263 50 r reactivate;
#X text 330 93 [param_on-off] argument is outlet number;
#X obj 99 189 +~ 0.5;
#X text 131 215 if a signal is connected to this control input \, the
respective knob becomes the index of the signal \, with the control
signal going till 0.5 and no lower;
#X obj 21 49 inlet;
#X obj 118 143 r~;
#X obj 118 121 r \$0-5th_input;
#X obj 226 29 r \$0-5th_inlet;
#X obj 226 93 inlet_state;
#X connect 0 0 1 0;
#X connect 1 0 9 0;
#X connect 1 0 4 0;
#X connect 3 0 2 0;
#X connect 4 0 17 0;
#X connect 5 0 6 0;
#X connect 6 0 7 0;
#X connect 6 0 10 1;
#X connect 7 0 8 0;
#X connect 8 0 9 1;
#X connect 9 0 3 0;
#X connect 10 0 3 0;
#X connect 11 0 12 0;
#X connect 12 0 5 0;
#X connect 14 0 23 2;
#X connect 15 0 23 1;
#X connect 17 0 10 0;
#X connect 19 0 0 0;
#X connect 20 0 4 1;
#X connect 21 0 20 0;
#X connect 22 0 23 0;
#X connect 23 0 5 0;
#X restore 193 214 pd risePow;
#N canvas 380 206 676 356 fallPow 0;
#X obj 25 92 pack f 20;
#X obj 25 114 line~;
#X obj 25 291 outlet~;
#X obj 25 268 clip~ 0 1000;
#X obj 103 167 *~;
#X obj 231 174 pack f 20;
#X obj 231 196 line~;
#X obj 44 163 *~ -1;
#X obj 44 185 +~ 1;
#X obj 25 210 *~;
#X obj 103 212 *~;
#X obj 251 120 loadbang;
#X msg 251 142 0;
#X text 276 143 start off with no connection;
#X obj 305 70 r patchUpdate;
#X obj 268 50 r reactivate;
#X text 337 91 [param_on-off] argument is outlet number;
#X obj 103 189 +~ 0.5;
#X text 133 217 if a signal is connected to this control input \, the
respective knob becomes the index of the signal \, with the control
signal going till 0.5 and no lower;
#X obj 25 70 inlet;
#X obj 122 144 r~;
#X obj 122 122 r \$0-6th_input;
#X obj 231 29 r \$0-6th_inlet;
#X obj 231 92 inlet_state;
#X connect 0 0 1 0;
#X connect 1 0 9 0;
#X connect 1 0 4 0;
#X connect 3 0 2 0;
#X connect 4 0 17 0;
#X connect 5 0 6 0;
#X connect 6 0 7 0;
#X connect 6 0 10 1;
#X connect 7 0 8 0;
#X connect 8 0 9 1;
#X connect 9 0 3 0;
#X connect 10 0 3 0;
#X connect 11 0 12 0;
#X connect 12 0 5 0;
#X connect 14 0 23 2;
#X connect 15 0 23 1;
#X connect 17 0 10 0;
#X connect 19 0 0 0;
#X connect 20 0 4 1;
#X connect 21 0 20 0;
#X connect 22 0 23 0;
#X connect 23 0 5 0;
#X restore 232 244 pd fallPow;
#X obj 339 121 r reactivate;
#X obj 380 142 r patchUpdate;
#X obj 238 28 declare -path ../generic_abstractions;
#X obj 39 11 inlet;
#X obj 83 56 outlet;
#X obj 39 551 throw~;
#X obj 73 517 route 0;
#X obj 299 165 switch_state;
#X obj 299 101 r \$0-1st_outlet;
#X obj 75 307 r switches;
#X obj 75 329 route \$1;
#N canvas 644 145 527 458 scale-offset 0;
#X obj 36 61 change;
#X obj 36 273 + 1;
#X obj 36 297 swap 1;
#X obj 36 319 /;
#X obj 36 341 t f f;
#X obj 54 222 loadbang;
#X msg 54 244 0;
#X obj 36 385 outlet;
#X obj 68 364 outlet;
#X obj 36 86 swap;
#X obj 36 108 pack;
#X obj 36 130 route 1 0;
#X obj 36 197 f;
#X text 65 184 when the patching update is deactivated \, store value
and output it when it is reactivated;
#X obj 221 69 r patchUpdate;
#X obj 109 130 r reactivate;
#X obj 36 39 inlet;
#X connect 0 0 9 0;
#X connect 1 0 2 0;
#X connect 2 0 3 0;
#X connect 2 1 3 1;
#X connect 3 0 4 0;
#X connect 4 0 7 0;
#X connect 4 1 8 0;
#X connect 5 0 6 0;
#X connect 6 0 1 0;
#X connect 9 0 10 0;
#X connect 9 1 10 1;
#X connect 10 0 11 0;
#X connect 11 0 12 0;
#X connect 11 1 12 1;
#X connect 12 0 1 0;
#X connect 14 0 9 1;
#X connect 15 0 12 0;
#X connect 16 0 0 0;
#X restore 75 374 pd scale-offset;
#X obj 73 495 set_outputs \$4 \$5;
#N canvas 221 89 786 565 set_inputs_and_connection_states 0;
#X obj 27 105 route 0 1 2 3 4 5;
#X obj 27 228 s \$0-1st_input;
#X obj 46 208 s \$0-2nd_input;
#X obj 65 188 s \$0-3rd_input;
#X obj 85 168 s \$0-4th_input;
#X obj 104 148 s \$0-5th_input;
#X obj 123 128 s \$0-6th_input;
#X obj 27 286 r inlet_states;
#X obj 27 308 unpack;
#X obj 27 352 pack;
#X obj 27 497 s \$0-1st_inlet;
#X obj 46 477 s \$0-2nd_inlet;
#X obj 65 457 s \$0-3rd_inlet;
#X obj 85 437 s \$0-4th_inlet;
#X obj 104 417 s \$0-5th_inlet;
#X obj 123 397 s \$0-6th_inlet;
#X text 28 59 this sets the correct names to each [r~ ];
#X text 26 255 this sets the connection state of the modules inlets
(the matrix's outlets);
#X obj 307 388 unpack;
#X obj 307 432 pack;
#X obj 307 476 s \$0-1st_outlet;
#X text 306 335 this sets the connection state of the modules outlets
(the matrix's inlets);
#X obj 307 366 r outlet_states;
#X obj 27 82 set_inputs \$2 \$3;
#X obj 27 330 - \$3;
#X obj 307 410 - \$5;
#X obj 307 454 route 1;
#X obj 27 374 route 1 2 3 4 5 6;
#X connect 0 0 1 0;
#X connect 0 1 2 0;
#X connect 0 2 3 0;
#X connect 0 3 4 0;
#X connect 0 4 5 0;
#X connect 0 5 6 0;
#X connect 7 0 8 0;
#X connect 8 0 24 0;
#X connect 8 1 9 1;
#X connect 9 0 27 0;
#X connect 18 0 25 0;
#X connect 18 1 19 1;
#X connect 19 0 26 0;
#X connect 22 0 18 0;
#X connect 23 0 0 0;
#X connect 24 0 9 0;
#X connect 25 0 19 0;
#X connect 26 0 20 0;
#X connect 27 0 10 0;
#X connect 27 1 11 0;
#X connect 27 2 12 0;
#X connect 27 3 13 0;
#X connect 27 4 14 0;
#X connect 27 5 15 0;
#X restore 250 48 pd set_inputs_and_connection_states;
#X obj 75 351 route 1;
#X obj 39 33 list split 14;
#N canvas 462 106 449 641 assemble_and_scale_values 0;
#X obj 22 140 +;
#X obj 40 119 * 128;
#X obj 58 90 +;
#X obj 76 69 * 128;
#X obj 94 140 +;
#X obj 112 119 * 128;
#X obj 130 90 +;
#X obj 148 69 * 128;
#X obj 166 140 +;
#X obj 184 119 * 128;
#X obj 202 90 +;
#X obj 220 69 * 128;
#X obj 22 36 unpack f f f f f f f f f f f f f f;
#X obj 238 140 +;
#X obj 257 119 * 128;
#X obj 22 553 /;
#X obj 22 13 inlet;
#X obj 22 575 outlet;
#X obj 94 449 / 8191;
#X obj 94 471 * 2;
#X obj 94 493 outlet;
#X obj 130 395 / 8191;
#X obj 130 417 outlet;
#X obj 166 349 / 8191;
#X obj 166 371 outlet;
#X obj 202 255 / 8191;
#X obj 202 277 pow 4;
#X obj 202 299 * 1000;
#X obj 202 321 outlet;
#X obj 238 163 / 8191;
#X obj 238 185 pow 4;
#X obj 238 207 * 1000;
#X obj 238 229 outlet;
#X obj 58 514 debounce_float 10;
#X obj 58 536 + 1;
#X connect 0 0 15 0;
#X connect 1 0 0 1;
#X connect 2 0 33 0;
#X connect 3 0 2 1;
#X connect 4 0 18 0;
#X connect 5 0 4 1;
#X connect 6 0 21 0;
#X connect 7 0 6 1;
#X connect 8 0 23 0;
#X connect 9 0 8 1;
#X connect 10 0 25 0;
#X connect 11 0 10 1;
#X connect 12 0 0 0;
#X connect 12 1 1 0;
#X connect 12 2 2 0;
#X connect 12 3 3 0;
#X connect 12 4 4 0;
#X connect 12 5 5 0;
#X connect 12 6 6 0;
#X connect 12 7 7 0;
#X connect 12 8 8 0;
#X connect 12 9 9 0;
#X connect 12 10 10 0;
#X connect 12 11 11 0;
#X connect 12 12 13 0;
#X connect 12 13 14 0;
#X connect 13 0 29 0;
#X connect 14 0 13 1;
#X connect 15 0 17 0;
#X connect 16 0 12 0;
#X connect 18 0 19 0;
#X connect 19 0 20 0;
#X connect 21 0 22 0;
#X connect 23 0 24 0;
#X connect 25 0 26 0;
#X connect 26 0 27 0;
#X connect 27 0 28 0;
#X connect 29 0 30 0;
#X connect 30 0 31 0;
#X connect 31 0 32 0;
#X connect 33 0 34 0;
#X connect 34 0 15 1;
#X restore 39 79 pd assemble_and_scale_values;
#X connect 0 0 1 0;
#X connect 1 0 21 0;
#X connect 2 0 3 0;
#X connect 3 0 0 1;
#X connect 4 0 5 0;
#X connect 5 0 6 0;
#X connect 6 0 7 0;
#X connect 7 0 1 1;
#X connect 9 0 0 0;
#X connect 10 0 9 0;
#X connect 11 0 9 1;
#X connect 12 0 9 2;
#X connect 13 0 9 3;
#X connect 14 0 9 4;
#X connect 15 0 9 5;
#X connect 16 0 23 1;
#X connect 17 0 23 2;
#X connect 19 0 31 0;
#X connect 22 0 21 0;
#X connect 23 0 8 0;
#X connect 24 0 23 0;
#X connect 25 0 26 0;
#X connect 26 0 30 0;
#X connect 27 0 2 0;
#X connect 27 1 4 0;
#X connect 28 0 22 0;
#X connect 30 0 27 0;
#X connect 31 0 32 0;
#X connect 31 1 20 0;
#X connect 32 0 10 0;
#X connect 32 1 11 0;
#X connect 32 2 12 0;
#X connect 32 3 13 0;
#X connect 32 4 14 0;
#X connect 32 5 15 0;
